<svg version="1.1" xmlns="http://www.w3.org/2000/svg" xmlns:xlink="http://www.w3.org/1999/xlink" width="228.5" height="232" viewBox="0,0,228.5,232"><g transform="translate(-125.75,-64)"><g data-paper-data="{&quot;isPaintingLayer&quot;:true}" stroke-miterlimit="10" stroke-dasharray="" stroke-dashoffset="0" style="mix-blend-mode: normal"><path d="M130,180c0,-61.71782 49.24867,-111.75 110,-111.75c60.75133,0 110,50.03218 110,111.75c0,61.71782 -49.24867,111.75 -110,111.75c-60.75133,0 -110,-50.03218 -110,-111.75z" fill="#349cf7" fill-rule="nonzero" stroke="#000000" stroke-width="8.5" stroke-linecap="butt" stroke-linejoin="miter"/><path d="M261.48768,118.59615c0.58846,-0.3923 1.56922,-0.19615 1.76537,0.58846l5.09996,20.98828c0,0 12.55374,9.21915 16.28063,15.69218c6.27687,10.78837 6.47302,19.61522 6.47302,19.61522c0,0 13.92681,4.1192 16.28063,15.29987c2.35383,11.18067 -6.27687,32.36511 -43.15348,39.62274c-36.87661,7.25763 -66.49559,-2.74613 -80.4224,-25.10748c-13.92681,-22.36135 8.04224,-49.03805 6.86533,-47.46883l-4.1192,-35.11124c-0.19615,-0.78461 0.78461,-1.37307 1.56922,-0.98076l23.73442,15.49602c0,0 8.82685,-3.33459 18.046,-3.72689c5.49226,-0.3923 10.19991,0 14.71141,0.78461z" fill="#f5ab41" fill-rule="evenodd" stroke="#001026" stroke-width="1.2" stroke-linecap="butt" stroke-linejoin="miter"/><path d="M290.51821,176.2649c0,0 13.5345,3.53074 15.88833,14.71141c2.35383,11.18067 -7.06148,31.38435 -43.54579,38.44583c-47.46883,9.80761 -70.02633,-18.43831 -56.88414,-39.23044c13.1422,-20.98828 35.6997,-3.13844 52.17648,-4.31535c14.12296,-0.98076 15.69218,-13.33835 32.36511,-9.61146z" fill="#ffffff" fill-rule="evenodd" stroke="none" stroke-width="1" stroke-linecap="butt" stroke-linejoin="miter"/><path d="M228.73027,197.25318c0,-0.78461 0.78461,-1.37307 1.56922,-1.17691c3.72689,1.37307 14.31911,4.5115 26.08824,5.29611c10.59222,0.58846 16.86909,0 19.81137,-0.58846c0.98076,-0.19615 1.76537,0.78461 1.37307,1.76537c-1.76537,5.29611 -9.21915,20.00752 -29.81513,18.83061c-17.84985,-1.96152 -19.61522,-14.51526 -19.02676,-24.12672z" fill="#ffffff" fill-rule="evenodd" stroke="#001026" stroke-width="1.2" stroke-linecap="round" stroke-linejoin="round"/><path d="M326.61021,178.42257c-9.21915,7.45378 -23.34211,7.64994 -23.34211,7.64994" fill="none" fill-rule="evenodd" stroke="#001026" stroke-width="1.2" stroke-linecap="round" stroke-linejoin="round"/><path d="M324.06023,200.39162c-12.35759,0.98076 -20.00752,-2.74613 -20.00752,-2.74613" fill="none" fill-rule="evenodd" stroke="#001026" stroke-width="1.2" stroke-linecap="round" stroke-linejoin="round"/><path d="M257.36849,180.7764c4.1192,0 8.43454,0.3923 8.6307,1.76537c0.19615,2.74613 -2.74613,8.23839 -5.88457,8.43454c-3.53074,0.3923 -11.76913,-4.5115 -11.76913,-7.64994c-0.19615,-2.35383 5.09996,-2.54998 9.023,-2.54998z" fill="#001026" fill-rule="evenodd" stroke="#001026" stroke-width="1.2" stroke-linecap="round" stroke-linejoin="round"/><path d="M169.1,177.83411c0,0 16.86909,5.49226 23.73442,11.57298" fill="none" fill-rule="evenodd" stroke="#001026" stroke-width="1.2" stroke-linecap="round" stroke-linejoin="round"/><path d="M193.42287,196.27242c-8.43454,3.33459 -22.94981,1.17691 -22.94981,1.17691" fill="none" fill-rule="evenodd" stroke="#001026" stroke-width="1.2" stroke-linecap="round" stroke-linejoin="round"/><g fill-rule="evenodd"><path d="M280.51445,157.82659c5.68841,8.82685 5.88457,18.83061 0.3923,22.36135c-5.49226,3.53074 -14.51526,-0.58846 -20.39983,-9.41531c-5.68841,-8.82685 -5.88457,-18.83061 -0.3923,-22.36135c5.49226,-3.72689 14.71141,0.58846 20.39983,9.41531z" fill="#ffffff" stroke="#001026" stroke-width="1.2" stroke-linecap="round" stroke-linejoin="round"/><path d="M279.72984,169.00727c0,2.15767 -1.56922,3.92304 -3.53074,3.92304c-1.96152,0 -3.53074,-1.76537 -3.53074,-3.92304c0,-2.15767 1.56922,-3.92304 3.53074,-3.92304c1.96152,0 3.53074,1.76537 3.53074,3.92304" fill="#001026" stroke="none" stroke-width="1" stroke-linecap="butt" stroke-linejoin="miter"/></g><g fill-rule="evenodd"><path d="M231.8687,163.31885c5.88457,8.6307 5.49226,19.22291 0.19615,22.94981c-6.47302,3.72689 -15.10372,0.98076 -20.98828,-7.64994c-6.08072,-8.6307 -6.47302,-19.81137 -0.3923,-24.12672c6.08072,-4.5115 15.29987,0.19615 21.18444,8.82685z" fill="#ffffff" stroke="#001026" stroke-width="1.2" stroke-linecap="round" stroke-linejoin="round"/><path d="M230.69179,174.69568c0,2.15767 -1.56922,3.92304 -3.53074,3.92304c-1.96152,0 -3.53074,-1.76537 -3.53074,-3.92304c0,-2.15767 1.56922,-3.92304 3.53074,-3.92304c1.96152,0.19615 3.53074,1.76537 3.53074,3.92304" fill="#001026" stroke="none" stroke-width="1" stroke-linecap="butt" stroke-linejoin="miter"/></g><path d="M174.31795,229.78804c-0.5547,-0.83205 0.27735,-1.38675 0.27735,-1.38675l0.5547,-0.36795c2.92084,-2.13767 0.59832,-6.79526 -1.68979,-8.44291c-0.94131,0.05687 -3.37777,-0.34823 -4.13416,0.26032c-3.3742,2.71471 -0.42025,5.08769 0.57263,8.06635c0.72562,2.17685 -0.29412,4.90872 -1.11384,6.86672c-2.41171,2.34577 -7.30359,1.5249 -9.42305,-1.13508c-2.72395,-3.41864 -2.78488,-8.12245 0.78821,-10.81541c0,0 0.8,-0.6 1.4,0.2c0.6,0.8 -0.2,1.4 -0.2,1.4c-2.82912,2.10989 -2.61903,7.47846 0.97139,8.87152c1.38079,0.53574 3.57281,1.68779 4.79377,0.37798c0.53008,-1.42034 1.40382,-3.58029 0.88616,-5.13328c-0.41062,-1.23186 -1.63647,-2.23917 -2.01433,-3.64677c-0.91512,-3.40906 1.04632,-6.90309 4.66447,-7.26459c1.09506,-0.10941 2.29288,0.0016 3.38833,0.03804c3.68381,2.3468 6.63766,8.65158 2.31021,11.95709l-0.6453,0.43205c0,0 -0.83205,0.5547 -1.38675,-0.27735z" fill="#000000" fill-rule="nonzero" stroke="none" stroke-width="0.5" stroke-linecap="butt" stroke-linejoin="miter"/><path d="M181.99722,247.60558c0.89443,0.44722 0.44721,1.34164 0.44721,1.34164l-0.16595,0.32417c-1.81154,4.32705 -5.18171,2.04175 -8.38514,1.39511c-1.90249,-0.74603 -1.65358,-1.08989 -2.74333,-2.5665c-5.04183,-6.83172 2.80456,-12.21522 7.1448,-16.55546c6.85234,-4.95717 14.97171,6.10388 9.3623,12.06256c0,0 -0.7071,0.70711 -1.41421,0c-0.70711,-0.70711 0,-1.41421 0,-1.41421c3.04015,-2.74519 0.99576,-8.3908 -2.68201,-9.11094c-1.38382,-0.27096 -2.70924,-1.02406 -3.95569,-0.0265c-2.58376,2.58376 -9.57024,7.09389 -7.74229,11.23638c0.63783,1.44547 0.74437,4.06557 2.54376,4.44167c2.02139,0.40004 4.9517,2.64382 6.01486,-0.20489l0.23405,-0.47583c0,0 0.44721,-0.89443 1.34164,-0.44721z" fill="#000000" fill-rule="nonzero" stroke="none" stroke-width="0.5" stroke-linecap="butt" stroke-linejoin="miter"/><path d="M183.2429,258.8071c-0.70711,-0.70711 0,-1.41421 0,-1.41421l0.5071,-0.4929c0.96531,-1.2808 2.22392,-2.16728 3.20947,-3.41242c2.49347,-3.29447 4.87023,-11.2478 10.19053,-11.18758c1.63755,0.01853 3.19389,1.49565 4.4,2.4c0,0 0.8,0.6 0.2,1.4c-0.6,0.8 -1.4,0.2 -1.4,0.2c-0.77211,-0.57922 -2.14177,-2.02368 -3.2,-2c-1.59427,0.03568 -2.4889,1.50761 -3.4929,2.5071c-2.3553,2.34472 -3.22191,5.36034 -5.11658,7.90532c-0.99592,1.23408 -2.24137,2.11486 -3.19053,3.38758l-0.69289,0.7071c0,0 -0.7071,0.70711 -1.41421,0z" fill="#000000" fill-rule="nonzero" stroke="none" stroke-width="0.5" stroke-linecap="butt" stroke-linejoin="miter"/><path d="M210.45711,273.00711c-0.70711,0.70711 -1.41421,0 -1.41421,0l-0.4,-0.4c-3.11553,-3.153 -0.74794,-5.43035 0.82133,-8.57121c1.11779,-2.23724 1.81506,-4.75168 2.7573,-7.10728c1.37604,-3.39815 -1.14452,-4.64278 -3.56145,-5.95684c-0.862,-0.46866 -2.83005,-1.54379 -3.8877,-0.96535c-1.98373,1.08494 -2.84133,4.43779 -4.15061,6.18351c-0.5622,1.44357 -0.82821,2.89672 -1.61427,4.22457c-0.40289,0.68057 -0.4911,2.28847 -0.45749,3.12187c0.11065,2.74418 3.81577,4.83597 6,3.16364c0,0 0.8,-0.6 1.4,0.2c0.6,0.8 -0.2,1.4 -0.2,1.4c-3.33318,2.46036 -9.55894,-0.37639 -9.47273,-4.85455c0.03615,-1.87739 0.9548,-3.25964 1.53431,-4.89097c0.39048,-1.0992 0.61191,-2.23072 1.06665,-3.34441c1.57027,-2.09369 2.53621,-5.81622 5.04939,-7.01649c2.79327,-1.33404 4.85988,0.21314 7.63055,1.59351c2.7203,1.35528 3.53352,5.32469 2.52031,7.8843c-0.96783,2.41957 -1.69022,4.98936 -2.8427,7.29272c-1.13036,2.25917 -3.406,4.03429 -1.17867,6.22879l0.4,0.4c0,0 0.70711,0.70711 0,1.41421z" fill="#000000" fill-rule="nonzero" stroke="none" stroke-width="0.5" stroke-linecap="butt" stroke-linejoin="miter"/><path d="M223.00584,253.75986l0.60362,0.15148c0.99977,0.28824 1.99749,0.43013 3,0.71428c0,0 0.96152,0.27472 0.6868,1.23624c-0.27472,0.96152 -1.23624,0.68681 -1.23624,0.68681c-0.99977,-0.28824 -1.99749,-0.43013 -3,-0.71429l-0.53925,-0.13424c0,0 -0.31466,-0.07866 -0.54077,-0.32559c-1.44116,3.03521 -1.31447,5.04793 -2.23868,8.2783c-0.27684,1.97265 -1.88701,5.58568 -1.18672,7.43454c0.62312,1.64513 2.67834,2.75385 4.04913,3.66771l0.43812,0.41066c0,0 0.70711,0.70711 0,1.41421c-0.70711,0.70711 -1.41421,0 -1.41421,0l-0.13331,-0.16077c-1.75725,-1.1715 -3.99911,-2.53179 -4.80802,-4.61801c-0.86882,-2.24071 0.75763,-6.06932 1.09899,-8.4226c1.04171,-3.64978 1.67736,-5.63228 2.56235,-9.3802c0.29335,-1.83465 0.39969,-3.80657 1.04122,-5.59292c0.59293,-1.65104 1.08873,-1.88412 1.08873,-3.67546c0,0 0,-1 1,-1c1,0 1,1 1,1c0,1.9122 -0.594,2.62334 -1.19699,4.32453c-0.5401,1.52377 -0.62016,3.15725 -0.86621,4.72532c0.30214,-0.09233 0.59145,-0.02 0.59145,-0.02z" fill="#000000" fill-rule="nonzero" stroke="none" stroke-width="0.5" stroke-linecap="butt" stroke-linejoin="miter"/><path d="M217.33474,253.30143c0,-0.55228 0.44771,-1 1,-1c0.55229,0 1.85714,0.73343 1.85714,1.28571c0,0.55228 -1.30485,0.71429 -1.85714,0.71429c-0.55229,0 -1,-0.44772 -1,-1z" fill="#000000" fill-rule="nonzero" stroke="none" stroke-width="0.5" stroke-linecap="butt" stroke-linejoin="miter"/><path d="M244.21053,270.69272c0.89443,0.44722 0.44721,1.34164 0.44721,1.34164l-0.04734,-0.02008c-0.37009,2.45768 -2.21883,3.96827 -4.22793,5.30929c-4.6641,2.01853 -9.80284,-0.4441 -11.15345,-5.32356c-0.83638,-3.02166 0.24447,-6.7655 0.67967,-9.76946c0,-1.3141 -0.10179,-2.88742 0.80012,-3.99718c2.17984,-2.68221 10.70248,-2.84253 12.6148,0.24918c0.59931,0.96893 0.57224,2.9705 1.07314,4.13926c0,0 0.39392,0.91915 -0.52523,1.31306c-0.91914,0.39392 -1.31306,-0.52523 -1.31306,-0.52523c-0.40736,-0.95051 -0.4888,-3.22375 -0.92686,-3.86075c-1.28011,-1.86145 -7.97767,-1.73113 -9.3852,-0.03653c-0.52854,0.63633 -0.34274,2.20193 -0.34274,2.85996c-0.46169,3.26894 -1.48555,6.82976 -0.34097,10.02269c0.19088,0.53247 0.05737,1.251 0.47917,1.62788c0.97957,0.87527 2.84376,1.66302 4.13905,2.0313c1.40304,0.39892 1.92588,0.07128 3.24898,-0.48919c1.45173,-0.96612 2.96934,-2.09246 3.20064,-3.83357l0.23838,-0.59151c0,0 0.44721,-0.89443 1.34164,-0.44721z" fill="#000000" fill-rule="nonzero" stroke="none" stroke-width="0.5" stroke-linecap="butt" stroke-linejoin="miter"/><path d="M251.2224,277.82154c-0.94869,0.31623 -1.26491,-0.63246 -1.26491,-0.63246l-0.1557,-0.47008c-0.95841,-3.38127 -1.18825,-7.86257 -1.17881,-11.34669c-0.86651,-6.00813 -3.13102,-12.10268 -3.14538,-18.21375c0,0 0,-1 1,-1c1,0 1,1 1,1c-0.01636,6.04082 2.29684,12.12291 3.14034,18.07197c0.00796,3.3852 0.16197,7.66149 1.1069,10.93902l0.13001,0.38707c0,0 0.31623,0.94868 -0.63245,1.26491z" fill="#000000" fill-rule="nonzero" stroke="none" stroke-width="0.5" stroke-linecap="butt" stroke-linejoin="miter"/><path d="M265.44011,274.68282c0.17894,0.14609 0.3232,0.38164 0.3232,0.76146c0,1 -1,1 -1,1l-1.10438,-0.72528c-0.81877,-2.9573 -1.50717,-5.94549 -1.86081,-9.01317c-0.56092,-1.30486 -0.48131,-2.75745 -0.96895,-4.0475c-0.34744,-0.91915 -1.34571,-1.61474 -1.70403,-2.54565c-0.24709,-0.64194 -0.23379,-1.4638 -0.7445,-1.92458c-1.50569,-1.35847 -5.89012,-0.29656 -6.55533,1.50724c0,0 -0.39392,0.91915 -1.31306,0.52523c-0.91914,-0.39392 -0.52523,-1.31306 -0.52523,-1.31306c1.36005,-2.9262 7.11326,-4.59494 9.73038,-2.20704c2.46677,2.25072 2.75886,6.55163 4.01109,9.48228c0.38378,2.89098 0.91814,5.72222 1.71161,8.50008z" fill="#000000" fill-rule="nonzero" stroke="none" stroke-width="0.5" stroke-linecap="butt" stroke-linejoin="miter"/><path d="M282.76331,262.44428c1,0 1,1 1,1v0.71429c0,0.9721 0.36675,2.31536 -0.02042,3.20107c-2.67461,6.11854 -9.80545,5.92787 -12.29144,3.02932c-2.63476,-3.04426 -3.34605,-5.92947 -4.37248,-9.70179c-0.25114,-0.92296 -0.97661,-1.68708 -1.15506,-2.6268c-0.97843,-5.15212 4.74269,-7.9023 8.9051,-7.30838c3.16508,0.89979 4.61526,2.534 5.85586,5.44691c0.68824,1.61597 2.16814,2.45813 0.18304,4.09139c-0.51081,0.42027 -2.48615,0.55826 -3.19818,0.8105c-1.83439,0.64983 -3.57699,1.58861 -5.41244,2.27982c0,0 -0.93633,0.35112 -1.28745,-0.58521c-0.35113,-0.93633 0.5852,-1.28745 0.5852,-1.28745c1.85581,-0.69324 3.59185,-1.62536 5.4447,-2.29161c0.0342,-0.0123 2.09364,-0.60132 2.12644,-0.60722c0.25675,-0.04615 0.92284,0.16226 0.78057,-0.05641c-1.70115,-2.61463 -2.17011,-4.88893 -5.49487,-5.84471c-2.61638,-0.37435 -7.48296,1.30157 -6.52346,4.97733c0.99056,3.79478 2.32873,7.98994 4.75817,11.09999c0.44234,1.69153 7.33313,2.43002 9.13714,-1.82782c0.33031,-0.77961 -0.02043,-1.94994 -0.02043,-2.79894v-0.71429c0,0 0,-1 1,-1z" fill="#000000" fill-rule="nonzero" stroke="none" stroke-width="0.5" stroke-linecap="butt" stroke-linejoin="miter"/><path d="M292.61328,265.57996c-0.70711,0.70711 -1.41422,0 -1.41422,0l-0.41065,-0.43812c-0.79791,-1.19687 -1.39878,-2.46287 -2.19009,-3.64983c-0.76427,-1.85455 -2.4556,-3.33677 -3.42857,-5.14285c-2.35422,-4.37003 -3.43224,-10.43215 1.526,-13.34455c0,0 0.86824,-0.49614 1.36438,0.3721c0.49614,0.86825 -0.37211,1.36439 -0.37211,1.36439c-6.76049,3.7183 0.84481,11.67591 2.66886,15.79831c0.75896,1.13844 1.33094,2.34599 2.09563,3.49303l0.16077,0.13331c0,0 0.70711,0.70711 0,1.41421z" fill="#000000" fill-rule="nonzero" stroke="none" stroke-width="0.5" stroke-linecap="butt" stroke-linejoin="miter"/><path d="M297.44031,253.42564c0.44722,-0.89443 2.14549,-0.04336 2.14549,-0.04336c1.63744,0.70866 2.70778,2.47035 4.32921,1.72578c2.4107,-1.107 3.52513,-2.46837 4.95315,-4.96668c1.49176,-3.07617 -1.89156,-4.98268 -4.61807,-4.43181c-1.30072,0.2628 -2.6111,1.7078 -3.72476,2.32828c-0.53063,0.29563 -1.73274,0.73961 -2.3376,0.82534c-2.19365,0.3109 -3.81146,-0.79894 -5.52137,-1.9608c-1.46515,-1.75851 -2.47589,-4.88724 -1.19349,-7.10809c0.7006,-1.21331 2.46266,-2.00001 3.59289,-2.7535c1.32443,-0.88296 2.63567,-1.76825 4.33713,-1.5942c1.91692,0.1961 2.44059,1.67636 3.63896,2.862c0,0 0.70711,0.70711 0,1.41422c-0.70711,0.70711 -1.41421,0 -1.41421,0c-0.60962,-0.615 -1.36937,-2.27002 -2.36104,-2.28086c-3.84418,-0.04203 -8.2438,4.39753 -5.26347,7.97279c1.22025,0.79307 2.34811,1.69316 3.9072,1.46777c2.30523,-0.33326 3.70689,-2.63728 5.93764,-3.1321c4.59217,-1.01863 8.62845,2.72833 6.8105,7.28248c-1.63349,2.85928 -3.2426,4.44616 -6.04685,5.74761c-2.20406,1.0229 -3.57626,-0.61216 -5.81365,-1.55994l-0.91044,-0.45329c0,0 -0.89443,-0.44722 -0.44721,-1.34164z" fill="#000000" fill-rule="nonzero" stroke="none" stroke-width="0.5" stroke-linecap="butt" stroke-linejoin="miter"/><path d="M326.4776,234.58714c0,1 -1,1 -1,1l-0.56043,-0.03848c-0.74203,-0.21266 -1.49594,-0.38412 -2.25239,-0.53782c-2.47357,-0.01003 -4.86633,-0.93456 -7.29885,-1.28662c0.70398,1.90596 0.98543,3.89338 1.63076,5.82939c0.55287,1.65862 1.10728,2.40701 1.14619,3.60496h0.33472v1h-0.4096c-0.04618,0.27821 -0.11433,0.58331 -0.20772,0.92388l-2.3648,-0.08462c0,0 -4.24092,-3.46751 -6.86721,-5.78923c-0.28315,-0.12245 -2.13455,-1.68005 -2.41154,-1.81523c-1.02174,-0.49864 -1.95468,-1.60849 -2.8248,-2.17914c-4.10277,-2.69072 -6.80877,-5.5266 -10.84023,-8.85888c0,0 -0.76822,-0.64018 -0.12804,-1.4084c0.64018,-0.76822 1.40841,-0.12804 1.40841,-0.12804c4.92903,4.13604 9.99158,8.92675 15.35199,12.57533c1.80616,0.90555 4.12239,3.35915 5.85575,4.81694c-0.16982,-0.60893 -0.15271,-2.88641 -0.24247,-3.22253c-0.54041,-2.02374 -1.33185,-3.93296 -2.1881,-5.81156c-0.63983,-0.58136 -0.87689,-1.41388 -1.05208,-2.25647c-1.19549,-2.54212 -2.37236,-5.09007 -3.06092,-7.85554l0.01576,-0.05429l-0.02436,0.00348l-0.14042,-0.98297c-0.00822,-0.0516 -0.01248,-0.10453 -0.01248,-0.15845c0,-0.55229 0.44772,-1 1,-1c0.46471,0 0.85539,0.31699 0.9676,0.74654l0.27964,0.97875l-0.12824,0.03664l0.00831,0.05819c0.01576,0.06259 0.03186,0.12501 0.04825,0.18724c1.00936,1.73002 1.79824,3.72969 2.47287,5.4929c0.07455,0.19483 0.12465,0.48165 0.17236,0.80842c0.45898,0.88401 0.9266,1.76683 1.37238,2.66794c0.35339,-0.02086 0.74083,-0.15941 1.0884,-0.10979c2.41116,0.34423 4.79728,1.29157 7.24555,1.28091c0.8745,0.1726 1.7475,0.36081 2.60476,0.60504l0.01099,-0.03848c0,0 1,0 1,1z" fill="#000000" fill-rule="nonzero" stroke="none" stroke-width="0.5" stroke-linecap="butt" stroke-linejoin="miter"/><path d="M310.93235,216.42324c0.70711,-0.70711 1.41422,0 1.41422,0l0.16666,0.16666c0.43716,0.43753 0.88124,0.86855 1.3381,1.28548c5.69864,2.51538 10.6145,6.3819 16.28527,8.92793c0,0 0.91037,0.4138 0.49656,1.32417c-0.41381,0.91037 -1.32416,0.49656 -1.32416,0.49656c-5.73705,-2.63447 -10.82481,-6.40821 -16.54807,-9.07206c-0.57038,-0.49775 -1.1264,-1.01278 -1.6619,-1.54787l-0.16667,-0.16666c0,0 -0.70711,-0.70711 0,-1.41422z" fill="#000000" fill-rule="nonzero" stroke="none" stroke-width="0.5" stroke-linecap="butt" stroke-linejoin="miter"/><path d="M303.15305,215.47153c-2.18725,-1.8792 -0.18496,-4.82287 2.10244,-4.78824c1.00149,0.01516 1.96124,0.60778 2.09693,1.70064c0.09808,0.88385 -0.4213,1.90595 -0.88956,2.58776c-0.72791,1.05989 -3.30981,0.49984 -3.30981,0.49984zM304.97068,214.19772c0.13403,-0.19532 0.29886,-0.30521 0.29886,-0.30521l-0.10567,0.25158c1.62406,-3.48254 -2.50356,-0.77888 -0.19319,0.05363z" fill="#000000" fill-rule="nonzero" stroke="none" stroke-width="0.5" stroke-linecap="butt" stroke-linejoin="miter"/><path d="M185.81017,99.55393c0.45646,1.49152 1.4891,2.63065 2.29242,3.99296c2.26605,3.84295 4.45159,8.47808 7.34233,11.74608c1.07972,1.26096 1.77856,3.00631 2.81806,4.16761c0.31099,0.34743 3.33244,-1.8553 3.73636,-2.06925c2.90598,-1.53922 6.12327,-4.0272 4.89276,-7.79924c-2.19192,-3.50708 -3.89571,-7.48788 -6.16555,-11.11832c-1.60847,-2.57264 -2.78696,-4.59707 -6.1597,-4.21994c-2.39826,0.7948 -7.15106,2.27618 -8.47763,4.55328l-0.12154,0.45289c0,0 -0.04655,0.13966 -0.15751,0.29394zM184.19752,98.2807l0.1957,-0.53359c1.85296,-2.83617 6.6443,-4.40941 9.74458,-5.44672c8.27543,-0.91571 11.12727,10.94131 14.56365,16.43951c1.64712,4.86602 -1.83885,8.34083 -5.7739,10.42299c-1.12228,0.59383 -2.80007,2.20469 -4.09817,2.32606c-2.24348,0.20978 -3.60713,-3.38422 -4.90297,-4.89438c-2.91122,-3.47517 -5.20064,-8.03329 -7.54656,-12.03169c-1.03627,-1.76623 -2.24357,-3.14436 -2.67477,-5.20077c0,0 -0.15387,-0.76935 0.49244,-1.08141z" fill="#000000" fill-rule="nonzero" stroke="none" stroke-width="0.5" stroke-linecap="butt" stroke-linejoin="miter"/><path d="M222.28136,107.72796c0.13263,-0.2326 0.38155,-0.45086 0.84875,-0.45086c1,0 1,1 1,1l-0.68377,1.1709c-2.6232,0.86043 -5.26204,1.42262 -7.80245,2.52223c-1.01136,0.43776 -1.69699,1.27788 -2.95668,0.3616c-1.82321,-1.32617 -0.67177,-2.67941 -0.17348,-4.1456c0.87606,-2.57773 1.35211,-5.35236 2.20823,-7.95384c0.36691,-1.61016 0.41122,-3.30251 0.76164,-4.93277c0.09202,-0.42811 0.22257,-0.84854 0.37549,-1.25885c0.04316,-0.11579 0.13429,-0.29635 0.23489,-0.46953c-0.52882,0.15148 -1.4127,0.03702 -1.70248,0.11554c-1.05794,0.28669 -1.81596,1.15013 -2.8942,1.44586c-1.32158,0.36248 -2.53753,0.33336 -3.72606,1.10356c0,0 -0.848,0.53 -1.378,-0.318c-0.53,-0.848 0.318,-1.37799 0.318,-1.37799c1.40488,-0.8551 2.72788,-0.95605 4.27393,-1.34088c1.47532,-0.36723 2.42205,-1.39472 4.03452,-1.58278c0.57164,-0.06667 2.3999,-0.31807 2.73513,-0.00921c0.48819,0.44979 0.47893,1.27025 0.47462,1.93405c-0.00498,0.76544 -0.6322,1.40781 -0.78612,2.15764c-0.3457,1.68412 -0.4299,3.3983 -0.79392,5.06723c-0.89084,2.63527 -1.37346,5.41568 -2.23622,8.04615c-0.00905,0.0276 -0.96966,1.63805 -0.61793,1.8544c0.07622,0.04689 1.99366,-0.84253 2.08438,-0.8776c2.10645,-0.8142 4.24823,-1.35796 6.40175,-2.06125z" fill="#000000" fill-rule="nonzero" stroke="none" stroke-width="0.5" stroke-linecap="butt" stroke-linejoin="miter"/><path d="M227.46344,108.61043c-1,0 -1,-1 -1,-1l0.05132,-0.01711c-1.78643,-5.49604 -2.4991,-11.7863 -3.80528,-17.54374c0,0 -0.21692,-0.97619 0.75926,-1.19312c0.97618,-0.21693 1.19311,0.75925 1.19311,0.75925c1.22502,5.65609 1.93107,11.9943 3.75028,17.34515l0.05131,0.64956c0,0 0,1 -1,1z" fill="#000000" fill-rule="nonzero" stroke="none" stroke-width="0.5" stroke-linecap="butt" stroke-linejoin="miter"/><path d="M242.90789,99.2771c1,0 1,1 1,1v0.66667c-0.10563,5.85506 -7.18073,8.1558 -11.56347,5.17417c-1.22707,-3.24357 -3.27545,-7.25046 -3.10142,-10.78919c0.22822,-4.64066 3.98339,-8.78829 8.82072,-7.79314c2.91044,0.98516 8.50068,7.24367 3.86719,9.84773c-0.74022,0.41601 -1.58613,0.13471 -2.35834,0.22113c-2.12759,0.23808 -4.01696,0.89197 -6.22023,0.89486c0,0 -1,0 -1,-1c0,-1 1,-1 1,-1c1.48875,0.00216 2.51148,-0.33881 3.90352,-0.64489c1.03681,-0.22798 2.80472,0.18161 3.74013,-0.23913c0.63629,-0.2862 0.37236,-1.25263 0.26905,-1.67684c-0.57868,-2.37633 -1.30831,-3.68374 -3.7352,-4.47543c-2.90245,-0.72588 -5.17413,1.63108 -5.88046,4.1921c-1.04155,3.77647 1.17132,7.80417 2.04421,11.44779c3.02406,1.53781 4.29574,0.63074 6.53059,-1.44447c1.01815,-0.94542 1.72496,-1.2142 1.68371,-2.71469v-0.66667c0,0 0,-1 1,-1z" fill="#000000" fill-rule="nonzero" stroke="none" stroke-width="0.5" stroke-linecap="butt" stroke-linejoin="miter"/><path d="M247.68499,87.28322c0.99389,0.11043 0.88345,1.10431 0.88345,1.10431l-0.12828,1.10409c-1.79809,5.48184 -0.59097,10.85655 -1.77831,16.33574c0,0 -0.21693,0.97619 -1.19311,0.75925c-0.97618,-0.21693 -0.75926,-1.19311 -0.75926,-1.19311c1.24789,-5.44746 -0.08607,-10.84836 1.77725,-16.33093l0.09394,-0.89591c0,0 0.11043,-0.99388 1.10432,-0.88345z" fill="#000000" fill-rule="nonzero" stroke="none" stroke-width="0.5" stroke-linecap="butt" stroke-linejoin="miter"/><path d="M256.48955,107.81324c-0.98058,-0.19612 -0.78447,-1.1767 -0.78447,-1.1767l0.09169,-0.35944c0.00368,-1.73148 0.66753,-3.30496 0.66753,-5.04156c0.21891,-2.64692 0.87297,-5.08931 1.00067,-7.68041c0.03633,-0.73705 -0.82744,-1.90712 -1.35906,-2.56957c-1.24784,-1.55492 -4.65153,-2.44412 -5.6572,-0.33393c0,0 -0.48565,0.87416 -1.3598,0.38851c-0.87416,-0.48565 -0.38852,-1.3598 -0.38852,-1.3598c1.86741,-3.09829 6.91377,-2.8895 9.00947,0.11051c0.86845,1.2432 1.61625,2.50189 1.52982,3.87488c-0.16064,2.55183 -0.89068,4.92568 -1.11045,7.54182c0,1.70852 -0.33659,3.3687 -0.33247,5.06955l-0.13053,0.75167c0,0 -0.19611,0.98058 -1.17669,0.78447z" fill="#000000" fill-rule="nonzero" stroke="none" stroke-width="0.5" stroke-linecap="butt" stroke-linejoin="miter"/><path d="M265.35233,90.05488c0,0.47355 -0.22425,0.72285 -0.46036,0.8541c-2.86995,4.92497 -1.59941,12.33472 -5.33594,16.90781c0,0 -0.65079,0.75925 -1.41004,0.10846c-0.75926,-0.65079 -0.10847,-1.41004 -0.10847,-1.41004c0.92179,-0.99585 1.26995,-2.93755 1.56032,-4.2304c0.31649,-1.40917 1.25158,-2.59631 1.55555,-4c0.63013,-2.90976 0.64808,-6.17876 2.23983,-8.75992l0.95911,-0.47c0,0 1,0 1,1z" fill="#000000" fill-rule="nonzero" stroke="none" stroke-width="0.5" stroke-linecap="butt" stroke-linejoin="miter"/><path d="M269.86745,111.31753c-0.5288,-0.5288 -0.26669,-1.05759 -0.10088,-1.29065c0.5202,-2.31574 1.2652,-4.10364 1.78334,-6.42174c0.67612,-2.02809 2.17254,-5.0178 1.40826,-7.23718c-1.08094,-3.13893 -4.3881,-5.97579 -6.64672,-2.33864c0,0 -0.52999,0.84799 -1.378,0.31799c-0.848,-0.53 -0.318,-1.37799 -0.318,-1.37799c3.20828,-5.10476 8.69838,-1.9754 10.24217,2.77246c0.90756,2.79117 -0.68681,5.34866 -1.54156,7.91336c-0.52342,2.37068 -1.12748,4.69088 -1.6542,7.06111l-0.38019,0.60128c0,0 -0.70711,0.70711 -1.41421,0z" fill="#000000" fill-rule="nonzero" stroke="none" stroke-width="0.5" stroke-linecap="butt" stroke-linejoin="miter"/><path d="M273.79678,113.83265c-1,0 -1,-1 -1,-1l0.00611,-0.22154c0.3419,-3.03902 2.22935,-5.37415 3.81512,-7.8681c1.7799,-2.79924 1.92124,-6.35561 4.08617,-8.89448c0,0 0.6508,-0.75926 1.41005,-0.10847c0.75925,0.65079 0.10847,1.41005 0.10847,1.41005c-2.05361,2.38156 -2.24956,5.9641 -3.91383,8.66107c-1.38308,2.2413 -3.22102,4.30819 -3.51821,7.0208l0.00612,0.00068c0,0 0,1 -1,1z" fill="#000000" fill-rule="nonzero" stroke="none" stroke-width="0.5" stroke-linecap="butt" stroke-linejoin="miter"/><path d="M285.15153,89.99739c0.56037,-0.6276 0.19704,-1.57231 -0.677,-1.39612c-0.71057,0.14324 -0.20585,0.93496 -0.14592,1.29451c0.02468,0.14811 0.55953,0.3966 0.82293,0.1016zM283.03458,90.61043c-0.41865,-1.20661 -0.86942,-2.58747 0.60956,-3.64432c1.18232,-0.69645 3.26879,0.37588 3.43387,1.80323c0.02151,1.22254 -0.10794,1.81997 -0.9977,2.62454c-0.68225,0.61693 -2.61982,0.44406 -3.04573,-0.78346z" fill="#000000" fill-rule="nonzero" stroke="none" stroke-width="0.5" stroke-linecap="butt" stroke-linejoin="miter"/><path d="M298.57455,104.83265c0,0.70529 -0.49743,0.91315 -0.79063,0.97441c-1.84243,1.07866 -3.98997,1.50413 -5.69475,2.80564c-1.7865,1.53129 -3.82865,1.84931 -5.75831,3.06539c-1.67123,1.05322 -3.81674,2.81153 -5.77094,3.24389c-1.48477,0.32851 -3.74842,0.057 -3.87426,-1.97821c-0.03634,-0.58777 0.45953,-1.09896 0.81908,-1.56535c1.13583,-1.47335 2.00184,-2.70424 3.04169,-4.36004c1.00562,-1.12423 1.47505,-2.33667 2.3002,-3.6187c1.86882,-2.90353 3.58005,-5.90353 5.56984,-8.7992c0.71625,-1.04233 1.87854,-2.02561 2.20939,-3.19516c0,0 0.31622,-0.94869 1.26491,-0.63246c0.94869,0.31623 0.63245,1.26491 0.63245,1.26491c-2.90934,3.88366 -5.5933,8.8124 -8.10965,12.6723c-0.84375,1.29425 -1.22583,2.25089 -2.25536,3.49242c-1.13205,1.82188 -2.17678,3.12336 -3.47256,4.74128c-0.30406,0.37966 0.98135,0.11327 1.45908,0.02178c0.88356,-0.1692 1.75219,-1.05801 2.62376,-1.39857c2.54178,-0.99318 6.00155,-2.74209 8.06921,-4.51437c1.87883,-1.39056 4.13943,-1.83841 6.09573,-3.06795l0.64111,-0.15201c0,0 1,0 1,1z" fill="#000000" fill-rule="nonzero" stroke="none" stroke-width="0.5" stroke-linecap="butt" stroke-linejoin="miter"/><path d="M288.35165,111.09803c0.99388,0.11043 0.88345,1.10432 0.88345,1.10432l-0.10652,0.94486c0,2.38386 -0.55403,4.64801 -0.55403,7.05581c0,0 0,1 -1,1c-1,0 -1,-1 -1,-1c0,-2.44296 0.55709,-4.75267 0.55709,-7.16641l0.1157,-1.05513c0,0 0.11043,-0.99388 1.10431,-0.88345z" fill="#000000" fill-rule="nonzero" stroke="none" stroke-width="0.5" stroke-linecap="butt" stroke-linejoin="miter"/></g></g></svg>